<svg preserveAspectRatio="none" width="100%" height="100%" overflow="visible" style="display: block;" viewBox="0 0 13.5 14.5" fill="none" xmlns="http://www.w3.org/2000/svg">
<path id="icon" d="M2 8.5C3.10457 8.5 4 9.39543 4 10.5C4 11.6046 3.10457 12.5 2 12.5H1.5V14.5H0V8.5H2ZM7 8.5C8.10457 8.5 9 9.39543 9 10.5V12.5C9 13.6046 8.10457 14.5 7 14.5H5V8.5H7ZM13.5 10H11.5V11H13.5V12.5H11.5V14.5H10V8.5H13.5V10ZM6.5 13H7C7.27614 13 7.5 12.7761 7.5 12.5V10.5C7.5 10.2239 7.27614 10 7 10H6.5V13ZM1.5 11H2C2.27614 11 2.5 10.7761 2.5 10.5C2.5 10.2239 2.27614 10 2 10H1.5V11ZM13 5.18945V7.5H11.5V6.5H6.5V1.5H2.5V7.5H1V0H7.81055L13 5.18945ZM8 5H10.6895L8 2.31055V5Z" fill="var(--fill-0, white)"/>
</svg>
