<svg preserveAspectRatio="none" width="100%" height="100%" overflow="visible" style="display: block;" viewBox="0 0 24.0013 24.0013" fill="none" xmlns="http://www.w3.org/2000/svg">
<g id="Social link 2" clip-path="url(#clip0_0_10)">
<g id="Vector">
<path fill-rule="evenodd" clip-rule="evenodd" d="M24.0013 2.99755C24.0013 1.34169 22.6569 -0.00261688 21.0011 -0.00261688H3.00009C1.34423 -0.00261688 -7.62939e-05 1.34169 -7.62939e-05 2.99755V20.9985C-7.62939e-05 22.6544 1.34423 23.9987 3.00009 23.9987H21.0011C22.6569 23.9987 24.0013 22.6544 24.0013 20.9985V2.99755Z" fill="black" fill-opacity="0.45"/>
<path d="M6.88386 8.37183H2.86364V20.4645H6.88386V8.37183Z" fill="var(--fill-0, white)"/>
<path d="M4.89995 2.54257C3.52451 2.54257 2.62582 3.44684 2.62582 4.63205C2.62582 5.79236 3.49718 6.72157 4.84674 6.72157H4.87271C6.27449 6.72157 7.14703 5.79236 7.14703 4.63205C7.12101 3.44684 6.27459 2.54257 4.89995 2.54257Z" fill="var(--fill-0, white)"/>
<path d="M16.7493 8.08836C14.6169 8.08836 13.6617 9.2611 13.1268 10.0848V8.37272H9.10764C9.16094 9.50702 9.10764 20.4653 9.10764 20.4653H13.1268V13.7119C13.1268 13.3505 13.1528 12.9891 13.2593 12.7307C13.5494 12.0088 14.2112 11.261 15.3216 11.261C16.7754 11.261 17.3578 12.3703 17.3578 13.9953V20.4653H21.3771V13.5307C21.3771 9.81627 19.3939 8.08836 16.7493 8.08836Z" fill="var(--fill-0, white)"/>
</g>
</g>
<defs>
<clipPath id="clip0_0_10">
<rect width="24.0013" height="24.0013" fill="white"/>
</clipPath>
</defs>
</svg>
