<svg preserveAspectRatio="none" width="100%" height="100%" overflow="visible" style="display: block;" viewBox="0 0 24.0009 24.3754" fill="none" xmlns="http://www.w3.org/2000/svg">
<g id="Social link 4">
<path id="Vector" d="M18.3104 0.384188C21.4804 0.545036 24.0009 3.16641 24.0009 6.37638V18.3764L23.9931 18.685C23.8374 21.7526 21.3781 24.2119 18.3104 24.3676L18.0019 24.3754H6.00185L5.69326 24.3676C2.62535 24.2122 0.16533 21.7528 0.00966406 18.685L0.00185156 18.3764V6.37638C0.00185156 3.1662 2.52297 0.544726 5.69326 0.384188L6.00185 0.376375H18.0019L18.3104 0.384188ZM2.76064 20.7182C3.48739 21.7218 4.66791 22.3754 6.00185 22.3754H18.0019C19.4413 22.3752 20.7019 21.6141 21.4061 20.4731L15.7724 14.0932L15.0936 14.7856C13.6015 16.3045 11.1558 16.3994 9.58584 14.9096C9.30582 14.6438 9.0129 14.3625 8.71767 14.0746L2.76064 20.7182ZM2.00673 6.1586C2.00287 6.23069 2.00185 6.30333 2.00185 6.37638V18.3764C2.00186 18.4392 2.00288 18.5017 2.00576 18.5639L7.3583 12.5951C7.21479 12.4197 7.04715 12.2138 6.86025 11.9858C6.23263 11.22 5.38975 10.1957 4.53017 9.15958C3.66986 8.1226 2.79502 7.07652 2.10146 6.26798C2.06969 6.23094 2.03767 6.19454 2.00673 6.1586ZM17.1093 12.5834L22.0009 18.1244V6.37638C22.0009 6.3388 21.999 6.30139 21.9979 6.26407L17.1093 12.5834ZM6.00185 2.37638C4.67986 2.37638 3.50748 3.01769 2.7792 4.00626C3.01196 4.26507 3.29945 4.59365 3.61904 4.96622C4.32343 5.78739 5.20689 6.84281 6.06923 7.88223C6.93233 8.92257 7.77798 9.9506 8.40713 10.7182C8.7215 11.1017 8.98188 11.421 9.16396 11.644C9.25493 11.7553 9.32723 11.8431 9.37588 11.9027C9.3919 11.9224 9.40592 11.9391 9.41689 11.9525C9.92959 12.4675 10.4646 12.9866 10.9628 13.4594C11.716 14.1738 12.9148 14.1497 13.6669 13.3842L15.0585 11.9652L21.2196 4.0004C20.4913 3.01521 19.3211 2.37653 18.0019 2.37638H6.00185Z" fill="var(--fill-0, black)" fill-opacity="0.45"/>
</g>
</svg>
