<svg preserveAspectRatio="none" width="100%" height="100%" overflow="visible" style="display: block;" viewBox="0 0 23.9994 23.9994" fill="none" xmlns="http://www.w3.org/2000/svg">
<g id="Social link 1" clip-path="url(#clip0_0_12)">
<path id="Vector" d="M11.9997 2.16294C15.2036 2.16294 15.5836 2.17494 16.8496 2.23294C20.1015 2.38094 21.6204 3.9239 21.7684 7.15181C21.8264 8.41678 21.8374 8.79677 21.8374 12.0007C21.8374 15.2056 21.8254 15.5846 21.7684 16.8496C21.6194 20.0745 20.1045 21.6204 16.8496 21.7684C15.5836 21.8264 15.2056 21.8384 11.9997 21.8384C8.79577 21.8384 8.41578 21.8264 7.15081 21.7684C3.8909 21.6194 2.37994 20.0695 2.23194 16.8486C2.17394 15.5836 2.16194 15.2046 2.16194 11.9997C2.16194 8.79577 2.17494 8.41678 2.23194 7.15081C2.38094 3.9239 3.8959 2.37994 7.15081 2.23194C8.41678 2.17494 8.79577 2.16294 11.9997 2.16294ZM11.9997 0C8.74077 0 8.33278 0.0139996 7.05282 0.0719981C2.69493 0.271993 0.272993 2.68993 0.0729981 7.05182C0.0139996 8.33278 0 8.74077 0 11.9997C0 15.2586 0.0139996 15.6676 0.0719981 16.9476C0.271993 21.3054 2.68993 23.7274 7.05182 23.9274C8.33278 23.9854 8.74077 23.9994 11.9997 23.9994C15.2586 23.9994 15.6676 23.9854 16.9476 23.9274C21.3014 23.7274 23.7294 21.3094 23.9264 16.9476C23.9854 15.6676 23.9994 15.2586 23.9994 11.9997C23.9994 8.74077 23.9854 8.33278 23.9274 7.05282C23.7314 2.69893 21.3104 0.272993 16.9486 0.0729981C15.6676 0.0139996 15.2586 0 11.9997 0ZM11.9997 5.83785C8.59678 5.83785 5.83785 8.59678 5.83785 11.9997C5.83785 15.4026 8.59678 18.1625 11.9997 18.1625C15.4026 18.1625 18.1615 15.4036 18.1615 11.9997C18.1615 8.59678 15.4026 5.83785 11.9997 5.83785ZM11.9997 15.9996C9.79074 15.9996 7.99979 14.2096 7.99979 11.9997C7.99979 9.79074 9.79074 7.99979 11.9997 7.99979C14.2086 7.99979 15.9996 9.79074 15.9996 11.9997C15.9996 14.2096 14.2086 15.9996 11.9997 15.9996ZM18.4055 4.15489C17.6095 4.15489 16.9646 4.79987 16.9646 5.59485C16.9646 6.38983 17.6095 7.03482 18.4055 7.03482C19.2005 7.03482 19.8445 6.38983 19.8445 5.59485C19.8445 4.79987 19.2005 4.15489 18.4055 4.15489Z" fill="var(--fill-0, black)" fill-opacity="0.45"/>
</g>
<defs>
<clipPath id="clip0_0_12">
<rect width="23.9994" height="23.9994" fill="white"/>
</clipPath>
</defs>
</svg>
