<svg xmlns="http://www.w3.org/2000/svg" width="1200" height="800" viewBox="0 0 1200 800">
  <rect width="1200" height="800" fill="#fafafa"/>
  <rect x="40" y="40" width="1120" height="50" rx="4" fill="white" stroke="#e0e0e0"/>
  <circle cx="300" cy="65" r="12" fill="#1a73e8"/>
  <text x="320" y="70" font-family="sans-serif" font-size="12" fill="#1a73e8">Shipping</text>
  <line x1="340" y1="65" x2="560" y2="65" stroke="#e0e0e0" stroke-width="2"/>
  <circle cx="600" cy="65" r="12" fill="#e0e0e0"/>
  <text x="620" y="70" font-family="sans-serif" font-size="12" fill="#666">Payment</text>
  <line x1="650" y1="65" x2="860" y2="65" stroke="#e0e0e0" stroke-width="2"/>
  <circle cx="900" cy="65" r="12" fill="#e0e0e0"/>
  <text x="920" y="70" font-family="sans-serif" font-size="12" fill="#666">Review</text>
  <rect x="40" y="120" width="740" height="640" rx="8" fill="white" stroke="#e0e0e0"/>
  <text x="80" y="170" font-family="sans-serif" font-size="20" fill="#1a1a1a">Shipping Address</text>
  <text x="80" y="210" font-family="sans-serif" font-size="14" fill="#666">Full Name</text>
  <rect x="80" y="220" width="660" height="44" rx="4" fill="#f8f9fa" stroke="#dadce0"/>
  <text x="80" y="300" font-family="sans-serif" font-size="14" fill="#666">Address</text>
  <rect x="80" y="310" width="660" height="44" rx="4" fill="#f8f9fa" stroke="#dadce0"/>
  <text x="80" y="390" font-family="sans-serif" font-size="14" fill="#666">City</text>
  <rect x="80" y="400" width="320" height="44" rx="4" fill="#f8f9fa" stroke="#dadce0"/>
  <text x="420" y="390" font-family="sans-serif" font-size="14" fill="#666">ZIP Code</text>
  <rect x="420" y="400" width="320" height="44" rx="4" fill="#f8f9fa" stroke="#dadce0"/>
</svg>
