<svg xmlns="http://www.w3.org/2000/svg" width="1200" height="800" viewBox="0 0 1200 800">
  <rect width="1200" height="800" fill="#fafafa"/>
  <text x="80" y="60" font-family="sans-serif" font-size="28" fill="#1a1a1a">Shopping Cart (3 items)</text>
  <rect x="40" y="90" width="780" height="120" rx="8" fill="white" stroke="#e0e0e0"/>
  <rect x="60" y="110" width="80" height="80" rx="4" fill="#f0f0f0"/>
  <text x="160" y="145" font-family="sans-serif" font-size="16" fill="#1a1a1a">Wireless Headphones</text>
  <text x="160" y="170" font-family="sans-serif" font-size="14" fill="#666">Color: Black | Qty: 1</text>
  <text x="760" y="155" font-family="sans-serif" font-size="18" fill="#1a1a1a" text-anchor="end">$79.99</text>
  <rect x="40" y="230" width="780" height="120" rx="8" fill="white" stroke="#e0e0e0"/>
  <rect x="60" y="250" width="80" height="80" rx="4" fill="#f0f0f0"/>
  <text x="160" y="285" font-family="sans-serif" font-size="16" fill="#1a1a1a">USB-C Cable</text>
  <text x="160" y="310" font-family="sans-serif" font-size="14" fill="#666">Length: 2m | Qty: 2</text>
  <text x="760" y="295" font-family="sans-serif" font-size="18" fill="#1a1a1a" text-anchor="end">$24.98</text>
  <rect x="860" y="90" width="300" height="260" rx="8" fill="white" stroke="#e0e0e0"/>
  <text x="880" y="130" font-family="sans-serif" font-size="18" fill="#1a1a1a">Order Summary</text>
  <text x="880" y="170" font-family="sans-serif" font-size="14" fill="#666">Subtotal</text>
  <text x="1140" y="170" font-family="sans-serif" font-size="14" fill="#1a1a1a" text-anchor="end">$104.97</text>
  <text x="880" y="200" font-family="sans-serif" font-size="14" fill="#666">Shipping</text>
  <text x="1140" y="200" font-family="sans-serif" font-size="14" fill="#34a853" text-anchor="end">FREE</text>
  <rect x="880" y="280" width="260" height="44" rx="22" fill="#1a1a1a"/>
  <text x="1010" y="308" font-family="sans-serif" font-size="16" fill="white" text-anchor="middle">Checkout</text>
</svg>
