<svg xmlns="http://www.w3.org/2000/svg" width="1200" height="800" viewBox="0 0 1200 800">
  <rect width="1200" height="800" fill="#f0f7f4"/>
  <rect x="0" y="0" width="1200" height="64" fill="#1b5e20"/>
  <text x="80" y="42" font-family="sans-serif" font-size="20" fill="white">Analytics</text>
  <rect x="40" y="100" width="560" height="320" rx="8" fill="white" stroke="#dadce0"/>
  <text x="60" y="135" font-family="sans-serif" font-size="16" fill="#202124">Appointment Trends</text>
  <line x1="80" y1="380" x2="560" y2="380" stroke="#e0e0e0" stroke-width="1"/>
  <line x1="80" y1="300" x2="560" y2="300" stroke="#e0e0e0" stroke-width="1" stroke-dasharray="4"/>
  <line x1="80" y1="220" x2="560" y2="220" stroke="#e0e0e0" stroke-width="1" stroke-dasharray="4"/>
  <polyline points="100,340 160,320 220,350 280,300 340,280 400,260 460,240 520,250" fill="none" stroke="#1b5e20" stroke-width="2"/>
  <polyline points="100,360 160,370 220,355 280,340 340,350 400,330 460,320 520,310" fill="none" stroke="#fb8c00" stroke-width="2" stroke-dasharray="6"/>
  <rect x="600" y="100" width="560" height="320" rx="8" fill="white" stroke="#dadce0"/>
  <text x="620" y="135" font-family="sans-serif" font-size="16" fill="#202124">Patient Satisfaction</text>
  <rect x="660" y="180" width="40" height="160" fill="#a5d6a7"/>
  <rect x="720" y="200" width="40" height="140" fill="#a5d6a7"/>
  <rect x="780" y="170" width="40" height="170" fill="#66bb6a"/>
  <rect x="840" y="190" width="40" height="150" fill="#a5d6a7"/>
  <rect x="900" y="160" width="40" height="180" fill="#66bb6a"/>
  <rect x="960" y="150" width="40" height="190" fill="#43a047"/>
</svg>
