<svg xmlns="http://www.w3.org/2000/svg" width="1200" height="800" viewBox="0 0 1200 800">
  <rect width="1200" height="800" fill="#e3f2fd"/>
  <rect x="0" y="0" width="1200" height="64" fill="#1565c0"/>
  <text x="80" y="42" font-family="sans-serif" font-size="20" fill="white">Trip to Barcelona — Day 2</text>
  <rect x="40" y="90" width="700" height="670" rx="8" fill="white" stroke="#bbdefb"/>
  <text x="60" y="130" font-family="sans-serif" font-size="18" fill="#1565c0">Tuesday, March 12</text>
  <circle cx="80" cy="170" r="8" fill="#1565c0"/>
  <line x1="80" y1="178" x2="80" y2="250" stroke="#bbdefb" stroke-width="2"/>
  <text x="100" y="165" font-family="sans-serif" font-size="12" fill="#5f6368">9:00 AM</text>
  <text x="100" y="185" font-family="sans-serif" font-size="16" fill="#202124">Sagrada Familia Tour</text>
  <circle cx="80" cy="270" r="8" fill="#1565c0"/>
  <line x1="80" y1="278" x2="80" y2="350" stroke="#bbdefb" stroke-width="2"/>
  <text x="100" y="265" font-family="sans-serif" font-size="12" fill="#5f6368">12:30 PM</text>
  <text x="100" y="285" font-family="sans-serif" font-size="16" fill="#202124">Lunch at La Boqueria Market</text>
  <circle cx="80" cy="370" r="8" fill="#1565c0"/>
  <text x="100" y="365" font-family="sans-serif" font-size="12" fill="#5f6368">3:00 PM</text>
  <text x="100" y="385" font-family="sans-serif" font-size="16" fill="#202124">Park Güell</text>
  <rect x="760" y="90" width="400" height="670" rx="8" fill="#e8eaf6"/>
  <text x="780" y="130" font-family="sans-serif" font-size="14" fill="#5f6368">Map View</text>
  <rect x="780" y="150" width="360" height="400" rx="4" fill="#c5cae9"/>
  <circle cx="900" cy="300" r="8" fill="#d32f2f"/>
  <circle cx="960" cy="350" r="8" fill="#d32f2f"/>
  <circle cx="940" cy="420" r="8" fill="#d32f2f"/>
</svg>
